<svg width="14" height="12" viewBox="0 0 14 12" fill="none" xmlns="http://www.w3.org/2000/svg">
<path d="M1.5 0.146484C0.947715 0.146484 0.5 0.5942 0.5 1.14648V9.14648C0.5 9.69877 0.947715 10.1465 1.5 10.1465H4.87879C5.144 10.1465 5.39836 10.2518 5.58589 10.4394L6.29289 11.1464C6.68342 11.5369 7.31658 11.5369 7.70711 11.1464L8.41411 10.4394C8.60164 10.2518 8.856 10.1465 9.12121 10.1465H12.5C13.0523 10.1465 13.5 9.69877 13.5 9.14648V1.14648C13.5 0.5942 13.0523 0.146484 12.5 0.146484H1.5ZM1.5 2.14648C1.5 1.5942 1.94772 1.14648 2.5 1.14648H11.5C12.0523 1.14648 12.5 1.5942 12.5 2.14648V8.14648C12.5 8.69877 12.0523 9.14648 11.5 9.14648H8.70721C8.442 9.14648 8.18764 9.25184 8.00011 9.43938L7.70711 9.73238C7.31658 10.1229 6.68342 10.1229 6.29289 9.73238L5.99989 9.43938C5.81236 9.25184 5.558 9.14648 5.29279 9.14648H2.5C1.94772 9.14648 1.5 8.69877 1.5 8.14648V2.14648ZM4 2.64648C3.72386 2.64648 3.5 2.87034 3.5 3.14648C3.5 3.42263 3.72386 3.64648 4 3.64648H10C10.2761 3.64648 10.5 3.42263 10.5 3.14648C10.5 2.87034 10.2761 2.64648 10 2.64648H4ZM4 4.64648C3.72386 4.64648 3.5 4.87034 3.5 5.14648C3.5 5.42263 3.72386 5.64648 4 5.64648H10C10.2761 5.64648 10.5 5.42263 10.5 5.14648C10.5 4.87034 10.2761 4.64648 10 4.64648H4ZM4 6.64648C3.72386 6.64648 3.5 6.87034 3.5 7.14648C3.5 7.42263 3.72386 7.64648 4 7.64648H8C8.27614 7.64648 8.5 7.42263 8.5 7.14648C8.5 6.87034 8.27614 6.64648 8 6.64648H4Z" fill="black"/>
</svg>
