<svg width="108" height="28" viewBox="0 0 108 28" fill="none" xmlns="http://www.w3.org/2000/svg">
<path d="M7.27376 10.9599V13.7047H0.219585V10.9599H7.27376ZM1.56454 21.5V10.658C1.56454 9.78879 1.72008 9.06827 2.03116 8.49644C2.34224 7.9246 2.78141 7.49687 3.34867 7.21323C3.91594 6.9296 4.58384 6.78779 5.35239 6.78779C5.83273 6.78779 6.29935 6.82439 6.75225 6.89758C7.20972 6.97078 7.54824 7.03482 7.76783 7.08972L7.21887 9.80709C7.08162 9.76591 6.92151 9.73389 6.73852 9.71102C6.55553 9.68357 6.39542 9.66984 6.25818 9.66984C5.90135 9.66984 5.66118 9.74533 5.53767 9.89629C5.41415 10.0473 5.35239 10.2463 5.35239 10.4933V21.5H1.56454ZM11.2383 21.6647C10.5658 21.6647 9.97111 21.5549 9.45417 21.3353C8.94181 21.1112 8.53924 20.7726 8.24646 20.3197C7.95368 19.8668 7.80728 19.2904 7.80728 18.5905C7.80728 18.0141 7.90564 17.5223 8.10235 17.1152C8.29906 16.7034 8.57355 16.3672 8.9258 16.1064C9.27805 15.8457 9.68748 15.6467 10.1541 15.5094C10.6253 15.3722 11.1331 15.283 11.6775 15.2418C12.2676 15.1961 12.7411 15.1412 13.0979 15.0771C13.4593 15.0085 13.7201 14.9147 13.8802 14.7958C14.0403 14.6723 14.1204 14.5099 14.1204 14.3086V14.2811C14.1204 14.0067 14.0151 13.7962 13.8047 13.6498C13.5943 13.5034 13.3244 13.4302 12.995 13.4302C12.6336 13.4302 12.3385 13.5103 12.1098 13.6704C11.8856 13.826 11.7507 14.0661 11.7049 14.3909H8.21901C8.26475 13.7505 8.46833 13.1603 8.82973 12.6205C9.1957 12.0761 9.72866 11.6415 10.4286 11.3167C11.1285 10.9874 12.0023 10.8227 13.0499 10.8227C13.8047 10.8227 14.4818 10.9119 15.081 11.0903C15.6803 11.2641 16.1904 11.5089 16.6113 11.8245C17.0322 12.1356 17.3524 12.5016 17.572 12.9225C17.7961 13.3387 17.9082 13.7916 17.9082 14.2811V21.5H14.3674V20.0178H14.285C14.0746 20.4112 13.8184 20.7292 13.5165 20.9716C13.2191 21.2141 12.8783 21.3902 12.4941 21.5C12.1144 21.6098 11.6958 21.6647 11.2383 21.6647ZM12.4735 19.2767C12.7617 19.2767 13.0316 19.2172 13.2832 19.0983C13.5394 18.9793 13.7475 18.8078 13.9076 18.5836C14.0678 18.3595 14.1478 18.0873 14.1478 17.7671V16.8887C14.0472 16.9299 13.9397 16.9688 13.8253 17.0054C13.7155 17.042 13.5966 17.0763 13.4685 17.1083C13.345 17.1403 13.2123 17.1701 13.0705 17.1975C12.9332 17.2249 12.7891 17.2501 12.6382 17.273C12.3454 17.3187 12.1052 17.3942 11.9176 17.4994C11.7347 17.6001 11.5974 17.7259 11.5059 17.8768C11.419 18.0232 11.3755 18.1879 11.3755 18.3709C11.3755 18.6637 11.4785 18.8879 11.6843 19.0434C11.8902 19.1989 12.1532 19.2767 12.4735 19.2767ZM23.5059 15.5712V21.5H19.7181V10.9599H23.3138V12.9636H23.4236C23.6523 12.2957 24.0549 11.7719 24.6313 11.3922C25.2123 11.0125 25.8893 10.8227 26.6625 10.8227C27.4081 10.8227 28.0554 10.9942 28.6044 11.3373C29.1579 11.6758 29.5857 12.1425 29.8876 12.7372C30.1941 13.3319 30.3451 14.0112 30.3405 14.7752V21.5H26.5527V15.5712C26.5572 15.0497 26.4246 14.6402 26.1547 14.3429C25.8893 14.0455 25.5188 13.8969 25.043 13.8969C24.7319 13.8969 24.4597 13.9655 24.2264 14.1027C23.9977 14.2354 23.8216 14.4275 23.6981 14.6791C23.5745 14.9262 23.5105 15.2235 23.5059 15.5712ZM32.1555 21.5V7.44654H35.9434V12.7989H35.9983C36.1355 12.4421 36.3368 12.115 36.6021 11.8177C36.8674 11.5157 37.1968 11.2756 37.5902 11.0971C37.9837 10.9142 38.4411 10.8227 38.9627 10.8227C39.658 10.8227 40.3191 11.0079 40.9458 11.3785C41.5771 11.749 42.0895 12.3323 42.4829 13.1283C42.8809 13.9243 43.0799 14.9582 43.0799 16.23C43.0799 17.4468 42.89 18.4555 42.5103 19.2561C42.1352 20.0567 41.632 20.6537 41.0007 21.0471C40.374 21.4405 39.6855 21.6372 38.9352 21.6372C38.4411 21.6372 37.9997 21.5572 37.6108 21.3971C37.2266 21.2324 36.8972 21.0105 36.6227 20.7315C36.3528 20.4478 36.1446 20.1276 35.9983 19.7708H35.9159V21.5H32.1555ZM35.861 16.23C35.861 16.7423 35.9273 17.1861 36.06 17.5612C36.1973 17.9317 36.3894 18.2199 36.6364 18.4258C36.888 18.6271 37.1877 18.7277 37.5354 18.7277C37.883 18.7277 38.1781 18.6294 38.4206 18.4327C38.6676 18.2314 38.8552 17.9455 38.9832 17.5749C39.1159 17.1998 39.1822 16.7515 39.1822 16.23C39.1822 15.7084 39.1159 15.2624 38.9832 14.8919C38.8552 14.5167 38.6676 14.2308 38.4206 14.0341C38.1781 13.8328 37.883 13.7322 37.5354 13.7322C37.1877 13.7322 36.888 13.8328 36.6364 14.0341C36.3894 14.2308 36.1973 14.5167 36.06 14.8919C35.9273 15.2624 35.861 15.7084 35.861 16.23ZM49.7155 21.6921C48.5901 21.6921 47.6203 21.4771 46.806 21.0471C45.9962 20.6125 45.3718 19.9904 44.9326 19.1806C44.498 18.3663 44.2807 17.3919 44.2807 16.2574C44.2807 15.1686 44.5003 14.2171 44.9395 13.4028C45.3787 12.5885 45.9985 11.9549 46.7991 11.502C47.5997 11.0491 48.5444 10.8227 49.6331 10.8227C50.4291 10.8227 51.1496 10.9462 51.7947 11.1932C52.4397 11.4403 52.991 11.7994 53.4484 12.2706C53.9059 12.7372 54.2581 13.3044 54.5052 13.9723C54.7522 14.6402 54.8757 15.3928 54.8757 16.23V17.1083H45.461V15.0222H51.3898C51.3852 14.7203 51.3075 14.455 51.1565 14.2262C51.0101 13.9929 50.8111 13.8122 50.5595 13.6841C50.3125 13.5515 50.0311 13.4851 49.7155 13.4851C49.409 13.4851 49.1276 13.5515 48.8714 13.6841C48.6153 13.8122 48.4094 13.9906 48.2539 14.2194C48.1029 14.4481 48.0228 14.7157 48.0137 15.0222V17.273C48.0137 17.6115 48.0846 17.9134 48.2264 18.1788C48.3682 18.4441 48.5718 18.6523 48.8371 18.8032C49.1025 18.9542 49.4227 19.0297 49.7978 19.0297C50.0586 19.0297 50.2965 18.9931 50.5115 18.9199C50.7311 18.8467 50.9186 18.7415 51.0742 18.6042C51.2297 18.4624 51.3441 18.2931 51.4173 18.0964H54.8757C54.7568 18.8284 54.4754 19.4643 54.0317 20.0041C53.588 20.5393 53.0001 20.9556 52.2682 21.253C51.5408 21.5457 50.6899 21.6921 49.7155 21.6921ZM62.707 10.9599V13.7047H55.7626V10.9599H62.707ZM57.1076 8.43468H60.8954V18.1102C60.8954 18.2565 60.9206 18.3801 60.9709 18.4807C61.0213 18.5768 61.099 18.65 61.2042 18.7003C61.3095 18.746 61.4444 18.7689 61.6091 18.7689C61.7235 18.7689 61.8561 18.7552 62.0071 18.7277C62.1626 18.7003 62.277 18.6774 62.3502 18.6591L62.8992 21.3216C62.7299 21.3719 62.4874 21.4337 62.1718 21.5069C61.8607 21.5801 61.4902 21.6281 61.0601 21.651C60.1909 21.6967 59.4613 21.6075 58.8711 21.3833C58.281 21.1546 57.8373 20.7955 57.5399 20.306C57.2426 19.8165 57.0985 19.2035 57.1076 18.467V8.43468Z" fill="white"/>
<rect width="42" height="27" transform="translate(66 0.5)" fill="#085D37"/>
<path d="M68.9332 21.5V18.7552L74.1758 14.4184C74.5235 14.1302 74.8209 13.8603 75.0679 13.6087C75.3195 13.3525 75.5116 13.0894 75.6443 12.8195C75.7816 12.5496 75.8502 12.25 75.8502 11.9206C75.8502 11.5592 75.7724 11.2504 75.6169 10.9942C75.4659 10.738 75.2555 10.5413 74.9856 10.4041C74.7156 10.2623 74.4046 10.1914 74.0523 10.1914C73.7001 10.1914 73.389 10.2623 73.1191 10.4041C72.8537 10.5459 72.6479 10.754 72.5015 11.0285C72.3551 11.303 72.2819 11.637 72.2819 12.0304H68.6588C68.6588 11.0423 68.8806 10.1914 69.3244 9.47771C69.7681 8.76406 70.3949 8.21509 71.2046 7.83082C72.0143 7.44654 72.9635 7.25441 74.0523 7.25441C75.1777 7.25441 76.1521 7.43511 76.9755 7.79651C77.8036 8.15333 78.4417 8.65655 78.8901 9.30616C79.343 9.95576 79.5694 10.7174 79.5694 11.5912C79.5694 12.131 79.4573 12.6686 79.2332 13.2038C79.009 13.7345 78.6064 14.3223 78.0254 14.9673C77.4445 15.6124 76.6187 16.3809 75.5482 17.273L74.2307 18.3709V18.4533H79.7204V21.5H68.9332ZM80.9864 19.3041V16.3397L86.6407 7.44654H89.3306V11.3991H87.7936L84.7468 16.23V16.3397H93.091V19.3041H80.9864ZM87.821 21.5V18.3984L87.9033 17.1083V7.44654H91.4716V21.5H87.821ZM95.3229 21.5L100.84 10.5756V10.4933H94.3622V7.44654H104.793V10.4933L99.248 21.5H95.3229Z" fill="#A3E635"/>
</svg>
