<svg width="100" height="70" viewBox="0 0 100 70" fill="none" xmlns="http://www.w3.org/2000/svg">
<g clip-path="url(#clip0_10623_20357)">
<path d="M6.77376 31.9599V34.7047H-0.280415V31.9599H6.77376ZM1.06454 42.5V31.658C1.06454 30.7888 1.22008 30.0683 1.53116 29.4964C1.84224 28.9246 2.28141 28.4969 2.84867 28.2132C3.41594 27.9296 4.08384 27.7878 4.85239 27.7878C5.33273 27.7878 5.79935 27.8244 6.25225 27.8976C6.70972 27.9708 7.04824 28.0348 7.26783 28.0897L6.71887 30.8071C6.58162 30.7659 6.42151 30.7339 6.23852 30.711C6.05553 30.6836 5.89542 30.6698 5.75818 30.6698C5.40135 30.6698 5.16118 30.7453 5.03767 30.8963C4.91415 31.0473 4.85239 31.2463 4.85239 31.4933V42.5H1.06454ZM10.7383 42.6647C10.0658 42.6647 9.47111 42.5549 8.95417 42.3353C8.44181 42.1112 8.03924 41.7726 7.74646 41.3197C7.45368 40.8668 7.30728 40.2904 7.30728 39.5905C7.30728 39.0141 7.40564 38.5223 7.60235 38.1152C7.79906 37.7034 8.07355 37.3672 8.4258 37.1064C8.77805 36.8457 9.18748 36.6467 9.6541 36.5094C10.1253 36.3722 10.6331 36.283 11.1775 36.2418C11.7676 36.1961 12.2411 36.1412 12.5979 36.0771C12.9593 36.0085 13.2201 35.9147 13.3802 35.7958C13.5403 35.6723 13.6204 35.5099 13.6204 35.3086V35.2811C13.6204 35.0067 13.5151 34.7962 13.3047 34.6498C13.0943 34.5034 12.8244 34.4302 12.495 34.4302C12.1336 34.4302 11.8385 34.5103 11.6098 34.6704C11.3856 34.826 11.2507 35.0661 11.2049 35.3909H7.71901C7.76475 34.7505 7.96833 34.1603 8.32973 33.6205C8.6957 33.0761 9.22866 32.6415 9.92858 32.3167C10.6285 31.9874 11.5023 31.8227 12.5499 31.8227C13.3047 31.8227 13.9818 31.9119 14.581 32.0903C15.1803 32.2641 15.6904 32.5089 16.1113 32.8245C16.5322 33.1356 16.8524 33.5016 17.072 33.9225C17.2961 34.3387 17.4082 34.7916 17.4082 35.2811V42.5H13.8674V41.0178H13.785C13.5746 41.4112 13.3184 41.7292 13.0165 41.9716C12.7191 42.2141 12.3783 42.3902 11.9941 42.5C11.6144 42.6098 11.1958 42.6647 10.7383 42.6647ZM11.9735 40.2767C12.2617 40.2767 12.5316 40.2172 12.7832 40.0983C13.0394 39.9793 13.2475 39.8078 13.4076 39.5836C13.5678 39.3595 13.6478 39.0873 13.6478 38.7671V37.8887C13.5472 37.9299 13.4397 37.9688 13.3253 38.0054C13.2155 38.042 13.0966 38.0763 12.9685 38.1083C12.845 38.1403 12.7123 38.1701 12.5705 38.1975C12.4332 38.2249 12.2891 38.2501 12.1382 38.273C11.8454 38.3187 11.6052 38.3942 11.4176 38.4994C11.2347 38.6001 11.0974 38.7259 11.0059 38.8768C10.919 39.0232 10.8755 39.1879 10.8755 39.3709C10.8755 39.6637 10.9785 39.8879 11.1843 40.0434C11.3902 40.1989 11.6532 40.2767 11.9735 40.2767ZM23.0059 36.5712V42.5H19.2181V31.9599H22.8138V33.9636H22.9236C23.1523 33.2957 23.5549 32.7719 24.1313 32.3922C24.7123 32.0125 25.3893 31.8227 26.1625 31.8227C26.9081 31.8227 27.5554 31.9942 28.1044 32.3373C28.6579 32.6758 29.0857 33.1425 29.3876 33.7372C29.6941 34.3319 29.8451 35.0112 29.8405 35.7752V42.5H26.0527V36.5712C26.0572 36.0497 25.9246 35.6402 25.6547 35.3429C25.3893 35.0455 25.0188 34.8969 24.543 34.8969C24.2319 34.8969 23.9597 34.9655 23.7264 35.1027C23.4977 35.2354 23.3216 35.4275 23.1981 35.6791C23.0745 35.9262 23.0105 36.2235 23.0059 36.5712ZM31.6555 42.5V28.4465H35.4434V33.7989H35.4983C35.6355 33.4421 35.8368 33.115 36.1021 32.8177C36.3674 32.5157 36.6968 32.2756 37.0902 32.0971C37.4837 31.9142 37.9411 31.8227 38.4627 31.8227C39.158 31.8227 39.8191 32.0079 40.4458 32.3785C41.0771 32.749 41.5895 33.3323 41.9829 34.1283C42.3809 34.9243 42.5799 35.9582 42.5799 37.23C42.5799 38.4468 42.39 39.4555 42.0103 40.2561C41.6352 41.0567 41.132 41.6537 40.5007 42.0471C39.874 42.4405 39.1855 42.6372 38.4352 42.6372C37.9411 42.6372 37.4997 42.5572 37.1108 42.3971C36.7266 42.2324 36.3972 42.0105 36.1227 41.7315C35.8528 41.4478 35.6446 41.1276 35.4983 40.7708H35.4159V42.5H31.6555ZM35.361 37.23C35.361 37.7423 35.4273 38.1861 35.56 38.5612C35.6973 38.9317 35.8894 39.2199 36.1364 39.4258C36.388 39.6271 36.6877 39.7277 37.0354 39.7277C37.383 39.7277 37.6781 39.6294 37.9206 39.4327C38.1676 39.2314 38.3552 38.9455 38.4832 38.5749C38.6159 38.1998 38.6822 37.7515 38.6822 37.23C38.6822 36.7084 38.6159 36.2624 38.4832 35.8919C38.3552 35.5167 38.1676 35.2308 37.9206 35.0341C37.6781 34.8328 37.383 34.7322 37.0354 34.7322C36.6877 34.7322 36.388 34.8328 36.1364 35.0341C35.8894 35.2308 35.6973 35.5167 35.56 35.8919C35.4273 36.2624 35.361 36.7084 35.361 37.23ZM49.2155 42.6921C48.0901 42.6921 47.1203 42.4771 46.306 42.0471C45.4962 41.6125 44.8718 40.9904 44.4326 40.1806C43.998 39.3663 43.7807 38.3919 43.7807 37.2574C43.7807 36.1686 44.0003 35.2171 44.4395 34.4028C44.8787 33.5885 45.4985 32.9549 46.2991 32.502C47.0997 32.0491 48.0444 31.8227 49.1331 31.8227C49.9291 31.8227 50.6496 31.9462 51.2947 32.1932C51.9397 32.4403 52.491 32.7994 52.9484 33.2706C53.4059 33.7372 53.7581 34.3044 54.0052 34.9723C54.2522 35.6402 54.3757 36.3928 54.3757 37.23V38.1083H44.961V36.0222H50.8898C50.8852 35.7203 50.8075 35.455 50.6565 35.2262C50.5101 34.9929 50.3111 34.8122 50.0595 34.6841C49.8125 34.5515 49.5311 34.4851 49.2155 34.4851C48.909 34.4851 48.6276 34.5515 48.3714 34.6841C48.1153 34.8122 47.9094 34.9906 47.7539 35.2194C47.6029 35.4481 47.5228 35.7157 47.5137 36.0222V38.273C47.5137 38.6115 47.5846 38.9134 47.7264 39.1788C47.8682 39.4441 48.0718 39.6523 48.3371 39.8032C48.6025 39.9542 48.9227 40.0297 49.2978 40.0297C49.5586 40.0297 49.7965 39.9931 50.0115 39.9199C50.2311 39.8467 50.4186 39.7415 50.5742 39.6042C50.7297 39.4624 50.8441 39.2931 50.9173 39.0964H54.3757C54.2568 39.8284 53.9754 40.4643 53.5317 41.0041C53.088 41.5393 52.5001 41.9556 51.7682 42.253C51.0408 42.5457 50.1899 42.6921 49.2155 42.6921ZM62.207 31.9599V34.7047H55.2626V31.9599H62.207ZM56.6076 29.4347H60.3954V39.1102C60.3954 39.2565 60.4206 39.3801 60.4709 39.4807C60.5213 39.5768 60.599 39.65 60.7042 39.7003C60.8095 39.746 60.9444 39.7689 61.1091 39.7689C61.2235 39.7689 61.3561 39.7552 61.5071 39.7277C61.6626 39.7003 61.777 39.6774 61.8502 39.6591L62.3992 42.3216C62.2299 42.3719 61.9874 42.4337 61.6718 42.5069C61.3607 42.5801 60.9902 42.6281 60.5601 42.651C59.6909 42.6967 58.9613 42.6075 58.3711 42.3833C57.781 42.1546 57.3373 41.7955 57.0399 41.306C56.7426 40.8165 56.5985 40.2035 56.6076 39.467V29.4347Z" fill="white"/>
<path d="M63.7253 42.5V39.7552L68.9679 35.4184C69.3155 35.1302 69.6129 34.8603 69.8599 34.6087C70.1115 34.3525 70.3037 34.0894 70.4363 33.8195C70.5736 33.5496 70.6422 33.25 70.6422 32.9206C70.6422 32.5592 70.5644 32.2504 70.4089 31.9942C70.2579 31.738 70.0475 31.5413 69.7776 31.4041C69.5077 31.2623 69.1966 31.1914 68.8443 31.1914C68.4921 31.1914 68.181 31.2623 67.9111 31.4041C67.6458 31.5459 67.4399 31.754 67.2935 32.0285C67.1471 32.303 67.0739 32.637 67.0739 33.0304H63.4508C63.4508 32.0423 63.6726 31.1914 64.1164 30.4777C64.5601 29.7641 65.1869 29.2151 65.9966 28.8308C66.8063 28.4465 67.7556 28.2544 68.8443 28.2544C69.9697 28.2544 70.9441 28.4351 71.7676 28.7965C72.5956 29.1533 73.2338 29.6566 73.6821 30.3062C74.135 30.9558 74.3614 31.7174 74.3614 32.5912C74.3614 33.131 74.2493 33.6686 74.0252 34.2038C73.801 34.7345 73.3984 35.3223 72.8175 35.9673C72.2365 36.6124 71.4107 37.3809 70.3403 38.273L69.0227 39.3709V39.4533H74.5124V42.5H63.7253ZM75.7784 40.3041V37.3397L81.4327 28.4465H84.1227V32.3991H82.5856L79.5388 37.23V37.3397H87.8831V40.3041H75.7784ZM82.613 42.5V39.3984L82.6954 38.1083V28.4465H86.2636V42.5H82.613ZM90.1149 42.5L95.632 31.5756V31.4933H89.1543V28.4465H99.5846V31.4933L94.04 42.5H90.1149Z" fill="#F8D429"/>
</g>
<defs>
<clipPath id="clip0_10623_20357">
<rect width="100" height="70" fill="white"/>
</clipPath>
</defs>
</svg>
