<svg width="22" height="23" viewBox="0 0 22 23" fill="none" xmlns="http://www.w3.org/2000/svg">
<g clip-path="url(#clip0_12628_5023)">
<g clip-path="url(#clip1_12628_5023)">
<path fill-rule="evenodd" clip-rule="evenodd" d="M8.84292 5.90175L8.46159 5.4272C8.08584 4.96312 7.74948 4.46849 7.456 3.94847L7.40515 3.87503C7.35855 3.81995 7.28793 3.78605 7.10009 3.8369C6.52102 3.99226 5.5112 4.35523 4.92507 4.64193L4.6878 4.76905C4.51691 4.88203 3.79237 5.41872 2.66391 6.48787L2.52974 7.1658C2.41415 7.75951 2.35692 8.3631 2.35884 8.96795C2.35884 9.54701 2.43228 10.1783 2.55516 11.0187C2.57069 11.1034 2.62578 11.1175 2.72464 11.1034L3.20907 11.0159C3.74718 10.9255 4.62989 10.804 5.28099 10.7842C5.29793 10.8337 5.31629 10.9113 5.30076 10.9848C4.98016 11.6429 3.08761 13.0765 3.03959 13.1443C3.02123 13.3801 3.5099 14.8165 4.06354 15.8235C4.05083 15.8644 4.02117 15.8884 3.97315 15.8842C3.30935 15.4845 2.26421 14.6625 2.11309 14.5326C1.85887 14.9987 1.54392 15.6032 1.3928 16.3983C1.1075 16.0452 0.809499 14.6767 0.865992 13.3194C0.682387 13.1174 0.2262 12.4833 0.185242 12.0765C0.528442 11.7008 1.18518 11.5031 1.18236 11.4975C1.14281 11.4466 1.69504 9.90151 2.24727 9.01173C1.74306 8.26743 1.58346 7.62481 1.5072 7.73356C0.67815 8.74762 0.29258 9.6826 0.351899 9.54277C0.679563 6.53306 2.98875 3.8835 4.2528 2.99514C3.89124 3.44991 3.53391 4.09677 3.17941 4.93288C3.68786 4.81 4.17794 4.71961 4.65249 4.66171C5.2091 4.01301 5.84166 3.43355 6.53656 2.93582L6.70887 2.81718C6.83174 2.74515 6.79219 2.68584 6.77666 2.65476L6.5987 2.39489C6.44631 2.17909 6.28662 1.96852 6.11992 1.76357C7.41645 1.4811 8.56751 1.57573 8.95873 1.60398C10.6338 0.86391 12.8512 0.916167 12.9995 0.975485C12.3272 1.18875 11.7439 1.49805 11.1747 1.99944L11.3145 2.04604C11.7114 2.16327 12.7749 2.43726 13.6096 2.89204L13.5884 2.96689L12.8088 2.9909C11.5942 3.03751 10.775 3.11801 10.0957 3.20558C9.68327 3.5403 9.1494 5.31562 9.03641 5.89469L10.155 7.83242C10.2355 7.96801 10.3103 8.08947 10.3767 8.1954L10.5702 8.48069C10.6451 8.58379 10.7199 8.65017 10.8725 8.61769L12.1732 8.20246C12.9679 7.95138 13.7705 7.72623 14.5799 7.52736C15.4456 6.67995 15.8863 6.0218 16.2464 5.53312C16.2902 5.46674 16.3114 5.38907 16.2027 5.25772C15.4061 4.41481 14.5307 3.65007 13.5884 2.97395L13.6068 2.88921C14.7366 3.07988 15.7253 3.37224 16.5769 3.76769L16.9314 3.94424C16.9766 3.96825 17.0063 3.9739 17.0303 3.89904C17.116 3.54524 17.1455 3.18016 17.1179 2.81718C17.5373 3.14485 18.1927 3.9979 18.639 4.9922C19.7208 5.91446 20.4468 6.87062 20.821 7.86208C20.4821 7.61068 20.0795 7.42426 19.4609 7.31127L19.5796 7.99202C19.6756 8.55272 19.79 9.33375 19.8197 10.3224L19.8846 10.9664C19.9312 11.5158 19.9863 12.3039 20.0485 13.3307C20.6332 13.0383 21.0724 12.6923 21.369 12.2926C21.2885 13.5552 20.3691 15.0636 20.0132 15.4591C19.951 16.1413 19.7491 17.1497 19.3635 17.8262C19.1338 17.4857 18.8455 17.1887 18.5118 16.9491L18.2689 17.1186C17.7718 17.4576 16.9907 17.9194 15.6843 18.2654C15.7408 18.853 15.6773 19.5591 15.584 20.1467C15.5247 20.2173 18.4144 19.0309 18.1489 19.1651C15.8524 21.4319 12.8497 22.2115 10.6804 22.1225C11.2524 21.9742 11.7891 21.7567 12.2933 21.47C12.3865 21.4135 12.402 21.3712 12.3427 21.3457C12.1591 21.2652 11.1874 20.648 10.9162 20.3571C10.9177 20.3289 10.936 20.2752 10.9374 20.2738C12.4162 20.4715 13.7339 20.3769 13.7339 20.3698C14.6237 19.562 15.584 18.3431 16.6193 16.7161L16.9032 16.2613C17.0162 16.1017 17.0501 15.993 17.0063 15.9322L16.971 15.904C16.1645 15.3136 15.2479 14.356 14.8397 13.8815L14.9527 13.7261C15.6984 13.8222 16.5911 13.9069 17.9992 13.8504C18.1842 13.8363 18.2265 13.8109 18.276 13.7177L18.5104 13.2163C19.194 11.722 19.694 10.3535 19.6883 10.3535C19.0957 9.27595 18.4582 8.22377 17.7774 7.19969C16.841 7.22229 15.8143 7.41013 14.7338 7.69825C13.9711 8.56402 13.2014 9.50605 12.4077 10.6331C12.3328 10.7489 12.3244 10.8704 12.3851 10.9622L14.4937 13.2417C14.6816 13.4394 14.8341 13.6004 14.9527 13.7219L14.8355 13.8773C13.9994 13.7177 12.2749 13.2502 11.09 12.9296C10.9657 12.9042 10.8795 12.8971 10.7976 13.0186C10.3245 13.7261 10.0335 14.3066 9.54909 15.1837L9.14375 15.904C9.12115 15.904 8.94602 16.8983 8.61553 18.884C8.60565 19.0535 8.68333 19.1736 8.84857 19.2442L10.1522 19.8981C10.4417 20.0422 10.703 20.1664 10.9318 20.2724L10.9092 20.3557C10.3626 20.4023 8.6918 20.391 8.62542 20.3825C8.61977 21.1593 8.82315 21.6395 8.96156 21.97C7.9023 21.744 6.98427 20.9164 6.39391 20.1961C5.77531 20.1325 3.8757 19.682 3.02123 18.7188C3.83051 18.8191 4.34178 18.7244 4.78949 18.6058L5.00981 18.5295C5.20472 18.4476 5.19483 18.3841 5.10868 18.2612C5.01405 18.1962 4.12569 16.3545 3.97598 15.8899C4.03106 15.8884 4.04942 15.8545 4.06919 15.8291L4.57199 16.2726C5.2711 16.8743 5.72729 17.2104 6.18347 17.5381C6.52667 17.8106 6.57469 17.7753 6.68909 17.7231C8.01387 16.8305 8.96297 15.8531 8.94885 15.8503C8.8175 15.3263 8.52938 13.4493 8.44746 12.4663C8.43899 12.1768 8.36555 12.0906 8.2681 12.0497L8.165 12.0172C7.19438 11.7252 6.24055 11.3801 5.30782 10.9834C5.31366 10.9164 5.30499 10.849 5.2824 10.7856C6.12133 10.4029 6.95744 10.0936 7.89947 9.70519C8.42204 9.53571 8.38532 9.46651 8.39097 9.27019C8.43052 8.19681 8.58729 6.87344 8.84292 5.90175Z" fill="white"/>
</g>
</g>
<defs>
<clipPath id="clip0_12628_5023">
<rect width="21.1852" height="21.1852" fill="white" transform="translate(0.185242 0.944427)"/>
</clipPath>
<clipPath id="clip1_12628_5023">
<rect width="21.1852" height="21.1852" fill="white" transform="translate(0.185242 0.944427)"/>
</clipPath>
</defs>
</svg>
