<svg width="18" height="20" viewBox="0 0 18 20" fill="none" xmlns="http://www.w3.org/2000/svg">
<path d="M9.51176 0.634001C9.17846 0.531495 8.82205 0.531495 8.48876 0.634001L5.50276 1.552C3.96867 2.02399 2.51165 2.71729 1.17776 3.61C0.329758 4.177 0.731758 5.5 1.75176 5.5H16.2478C17.2678 5.5 17.6698 4.177 16.8228 3.61C15.4886 2.71721 14.0312 2.0239 12.4968 1.552L9.51176 0.634001ZM1.24976 19C1.24976 18.8011 1.32878 18.6103 1.46943 18.4697C1.61008 18.329 1.80085 18.25 1.99976 18.25H15.9998C16.1987 18.25 16.3894 18.329 16.5301 18.4697C16.6707 18.6103 16.7498 18.8011 16.7498 19C16.7498 19.1989 16.6707 19.3897 16.5301 19.5303C16.3894 19.671 16.1987 19.75 15.9998 19.75H1.99976C1.80085 19.75 1.61008 19.671 1.46943 19.5303C1.32878 19.3897 1.24976 19.1989 1.24976 19ZM3.24976 15C3.24976 15.1989 3.32878 15.3897 3.46943 15.5303C3.61008 15.671 3.80085 15.75 3.99976 15.75C4.19867 15.75 4.38944 15.671 4.53009 15.5303C4.67074 15.3897 4.74976 15.1989 4.74976 15V9C4.74976 8.80109 4.67074 8.61032 4.53009 8.46967C4.38944 8.32902 4.19867 8.25 3.99976 8.25C3.80085 8.25 3.61008 8.32902 3.46943 8.46967C3.32878 8.61032 3.24976 8.80109 3.24976 9V15ZM8.99976 15.75C8.80085 15.75 8.61008 15.671 8.46943 15.5303C8.32878 15.3897 8.24976 15.1989 8.24976 15V9C8.24976 8.80109 8.32878 8.61032 8.46943 8.46967C8.61008 8.32902 8.80085 8.25 8.99976 8.25C9.19867 8.25 9.38943 8.32902 9.53009 8.46967C9.67074 8.61032 9.74976 8.80109 9.74976 9V15C9.74976 15.1989 9.67074 15.3897 9.53009 15.5303C9.38943 15.671 9.19867 15.75 8.99976 15.75ZM13.2498 15C13.2498 15.1989 13.3288 15.3897 13.4694 15.5303C13.6101 15.671 13.8008 15.75 13.9998 15.75C14.1987 15.75 14.3894 15.671 14.5301 15.5303C14.6707 15.3897 14.7498 15.1989 14.7498 15V9C14.7498 8.80109 14.6707 8.61032 14.5301 8.46967C14.3894 8.32902 14.1987 8.25 13.9998 8.25C13.8008 8.25 13.6101 8.32902 13.4694 8.46967C13.3288 8.61032 13.2498 8.80109 13.2498 9V15Z" fill="#085D37"/>
</svg>
