<svg width="337" height="386" viewBox="0 0 337 386" fill="none" xmlns="http://www.w3.org/2000/svg">
<path d="M326.878 323.935L212.603 192.825L326.878 61.7151C339.216 47.5601 339.216 24.7714 326.878 10.6163C314.541 -3.53877 294.678 -3.53877 282.341 10.6163L168.066 141.726L53.7906 10.6163C41.4531 -3.53877 21.5906 -3.53877 9.25313 10.6163C-3.08437 24.7714 -3.08437 47.5601 9.25313 61.7151L123.528 192.825L9.25313 323.935C-3.08437 338.091 -3.08437 360.879 9.25313 375.034C21.5906 389.189 41.4531 389.189 53.7906 375.034L168.066 243.924L282.341 375.034C294.678 389.189 314.541 389.189 326.878 375.034C339.128 360.879 339.128 337.99 326.878 323.935Z" fill="white"/>
</svg>
