<svg width="823" height="107" viewBox="0 0 823 107" fill="none" xmlns="http://www.w3.org/2000/svg">
<path d="M0.304 105L22.048 2.18399H56.32C63.712 2.18399 69.664 3.144 74.176 5.064C78.688 6.984 82 9.62399 84.112 12.984C86.224 16.344 87.28 20.232 87.28 24.648C87.28 29.352 86.464 33.432 84.832 36.888C83.2 40.344 80.848 43.272 77.776 45.672C74.704 47.976 70.912 49.8 66.4 51.144V51.72C70.528 53.064 73.792 55.464 76.192 58.92C78.688 62.28 79.936 66.408 79.936 71.304C79.936 79.272 78.064 85.752 74.32 90.744C70.672 95.736 65.728 99.384 59.488 101.688C53.344 103.896 46.432 105 38.752 105H0.304ZM38.176 83.544C40.96 83.544 43.408 83.016 45.52 81.96C47.632 80.904 49.264 79.464 50.416 77.64C51.664 75.816 52.288 73.8 52.288 71.592C52.288 68.328 51.52 65.928 49.984 64.392C48.448 62.76 45.712 61.944 41.776 61.944H37.024L32.416 83.544H38.176ZM46.24 41.64C49.504 41.64 52 41.16 53.728 40.2C55.552 39.24 56.848 37.944 57.616 36.312C58.384 34.584 58.768 32.616 58.768 30.408C58.768 28.104 58.048 26.328 56.608 25.08C55.168 23.832 52.912 23.208 49.84 23.208H45.376L41.2 41.64H46.24ZM91.5696 105L113.314 2.18399H174.37L169.762 24.504H136.21L132.898 40.632H164.146L159.106 62.952H127.858L123.826 82.392H157.378L152.626 105H91.5696ZM186.685 105L203.389 24.936H181.069L185.965 2.18399H258.253L253.213 24.936H230.893L214.189 105H186.685Z" fill="#1DB954"/>
<path d="M243.098 105L246.41 88.008L294.938 24.648H261.242L265.994 2.18399H335.258L331.658 19.464L282.41 82.536H320.57L315.818 105H243.098ZM322.019 105L325.331 89.304L338.867 83.688L351.539 24.072L340.307 18.024L343.619 2.18399H396.467L393.155 18.024L379.043 24.072L366.371 83.688L377.747 89.304L374.435 105H322.019ZM390.82 105L412.564 2.18399H440.068L423.076 82.536H456.628L451.876 105H390.82ZM466.757 105L488.501 2.18399H516.005L499.013 82.536H532.565L527.813 105H466.757ZM535.207 105L538.519 89.304L552.055 83.688L564.727 24.072L553.495 18.024L556.807 2.18399H609.655L606.343 18.024L592.231 24.072L579.559 83.688L590.935 89.304L587.623 105H535.207ZM648.503 106.44C639.767 106.44 632.471 104.808 626.615 101.544C620.759 98.28 616.343 93.672 613.367 87.72C610.487 81.768 609.047 74.808 609.047 66.84C609.047 61.464 609.527 56.136 610.487 50.856C611.543 45.576 613.031 40.488 614.951 35.592C616.967 30.6 619.511 25.992 622.583 21.768C625.655 17.544 629.255 13.848 633.383 10.68C637.511 7.512 642.167 5.064 647.351 3.336C652.631 1.512 658.439 0.599997 664.775 0.599997C677.447 0.599997 687.047 4.2 693.575 11.4C700.103 18.6 703.367 28.2 703.367 40.2C703.367 45.48 702.887 50.808 701.927 56.184C700.967 61.464 699.479 66.6 697.463 71.592C695.543 76.488 693.095 81.048 690.119 85.272C687.143 89.496 683.591 93.192 679.463 96.36C675.431 99.528 670.823 102.024 665.639 103.848C660.551 105.576 654.839 106.44 648.503 106.44ZM650.951 83.688C653.255 83.688 655.463 83.208 657.575 82.248C659.687 81.192 661.655 79.704 663.479 77.784C665.303 75.864 666.935 73.608 668.375 71.016C669.911 68.328 671.207 65.4 672.263 62.232C673.319 58.968 674.135 55.512 674.711 51.864C675.287 48.216 675.575 44.424 675.575 40.488C675.575 35.112 674.423 30.936 672.119 27.96C669.911 24.888 666.695 23.352 662.471 23.352C659.879 23.352 657.431 23.928 655.127 25.08C652.919 26.232 650.855 27.864 648.935 29.976C647.015 32.088 645.287 34.536 643.751 37.32C642.311 40.008 641.063 42.984 640.007 46.248C638.951 49.512 638.135 52.872 637.559 56.328C637.079 59.784 636.839 63.24 636.839 66.696C636.839 70.344 637.367 73.464 638.423 76.056C639.479 78.552 641.063 80.472 643.175 81.816C645.287 83.064 647.879 83.688 650.951 83.688ZM710.179 105L731.923 2.18399H763.891L784.051 71.304H784.627C784.819 69.768 785.059 67.896 785.347 65.688C785.635 63.48 785.971 61.128 786.355 58.632C786.739 56.136 787.123 53.736 787.507 51.432C787.891 49.128 788.275 47.064 788.659 45.24L797.875 2.18399H822.355L800.611 105H768.643L748.339 32.712H747.763C747.667 33.672 747.475 35.304 747.187 37.608C746.995 39.816 746.707 42.408 746.323 45.384C746.035 48.264 745.651 51.192 745.171 54.168C744.691 57.144 744.211 59.784 743.731 62.088L734.659 105H710.179Z" fill="white"/>
</svg>
