<svg width="168" height="45" viewBox="0 0 168 45" fill="none" xmlns="http://www.w3.org/2000/svg">
<path d="M12.1347 16.5122V20.9461H0.73948V16.5122H12.1347ZM2.91211 33.5385V16.0244C2.91211 14.6203 3.16336 13.4564 3.66588 12.5327C4.16839 11.609 4.87782 10.918 5.79416 10.4598C6.71051 10.0017 7.78943 9.77257 9.03093 9.77257C9.80687 9.77257 10.5606 9.83169 11.2922 9.94993C12.0312 10.0682 12.5781 10.1716 12.9328 10.2603L12.046 14.6499C11.8243 14.5834 11.5657 14.5317 11.2701 14.4947C10.9745 14.4504 10.7158 14.4282 10.4941 14.4282C9.91772 14.4282 9.52975 14.5501 9.33023 14.794C9.1307 15.0379 9.03093 15.3593 9.03093 15.7584V33.5385H2.91211ZM18.5389 33.8045C17.4526 33.8045 16.4919 33.6271 15.6569 33.2724C14.8292 32.9103 14.1789 32.3635 13.706 31.6319C13.233 30.9003 12.9965 29.9691 12.9965 28.8385C12.9965 27.9074 13.1554 27.1129 13.4732 26.4552C13.7909 25.7902 14.2343 25.247 14.8034 24.8258C15.3724 24.4046 16.0338 24.0831 16.7875 23.8614C17.5487 23.6397 18.369 23.4956 19.2484 23.4291C20.2017 23.3552 20.9665 23.2665 21.5429 23.163C22.1267 23.0522 22.548 22.9007 22.8066 22.7086C23.0653 22.509 23.1946 22.2467 23.1946 21.9215V21.8772C23.1946 21.4338 23.0246 21.0939 22.6847 20.8574C22.3447 20.6209 21.9087 20.5027 21.3767 20.5027C20.7929 20.5027 20.3162 20.632 19.9467 20.8907C19.5846 21.1419 19.3666 21.5299 19.2927 22.0546H13.6616C13.7355 21.02 14.0644 20.0667 14.6482 19.1947C15.2394 18.3153 16.1003 17.6132 17.2309 17.0886C18.3616 16.5565 19.7731 16.2905 21.4653 16.2905C22.6847 16.2905 23.7784 16.4346 24.7465 16.7228C25.7145 17.0036 26.5385 17.3989 27.2184 17.9088C27.8982 18.4114 28.4155 19.0025 28.7702 19.6824C29.1324 20.3549 29.3134 21.0865 29.3134 21.8772V33.5385H23.5936V31.1441H23.4606C23.1207 31.7797 22.7068 32.2933 22.2191 32.6849C21.7388 33.0766 21.1882 33.3611 20.5675 33.5385C19.9541 33.7158 19.2779 33.8045 18.5389 33.8045ZM20.5342 29.947C20.9998 29.947 21.4358 29.8509 21.8422 29.6588C22.2561 29.4666 22.5923 29.1895 22.8509 28.8274C23.1096 28.4653 23.2389 28.0256 23.2389 27.5083V26.0894C23.0763 26.156 22.9027 26.2188 22.7179 26.2779C22.5406 26.337 22.3484 26.3924 22.1415 26.4442C21.942 26.4959 21.7277 26.5439 21.4986 26.5883C21.2769 26.6326 21.0441 26.6732 20.8003 26.7102C20.3273 26.7841 19.9393 26.906 19.6363 27.076C19.3408 27.2386 19.1191 27.4418 18.9713 27.6857C18.8308 27.9221 18.7606 28.1882 18.7606 28.4838C18.7606 28.9567 18.9269 29.3188 19.2595 29.5701C19.592 29.8213 20.0169 29.947 20.5342 29.947ZM38.3559 23.9612V33.5385H32.237V16.5122H38.0455V19.7489H38.2228C38.5923 18.67 39.2426 17.8239 40.1738 17.2105C41.1123 16.5971 42.206 16.2905 43.4549 16.2905C44.6594 16.2905 45.7051 16.5676 46.5919 17.1218C47.4861 17.6687 48.177 18.4224 48.6648 19.3831C49.1599 20.3438 49.4037 21.4412 49.3963 22.6753V33.5385H43.2775V23.9612C43.2849 23.1187 43.0706 22.4573 42.6346 21.977C42.206 21.4966 41.6074 21.2565 40.8389 21.2565C40.3363 21.2565 39.8966 21.3673 39.5198 21.589C39.1503 21.8033 38.8658 22.1137 38.6662 22.5201C38.4667 22.9192 38.3632 23.3995 38.3559 23.9612ZM52.3283 33.5385V10.8367H58.4471V19.4829H58.5358C58.7575 18.9065 59.0826 18.3781 59.5113 17.8978C59.9399 17.41 60.4719 17.0221 61.1075 16.7338C61.743 16.4383 62.482 16.2905 63.3244 16.2905C64.4477 16.2905 65.5155 16.5897 66.528 17.1883C67.5478 17.7869 68.3754 18.7291 69.011 20.015C69.6539 21.3008 69.9753 22.9709 69.9753 25.0253C69.9753 26.991 69.6687 28.6205 69.0553 29.9137C68.4493 31.2069 67.6364 32.1713 66.6166 32.8069C65.6042 33.4424 64.492 33.7601 63.2801 33.7601C62.482 33.7601 61.7689 33.6308 61.1407 33.3722C60.52 33.1061 59.9879 32.7477 59.5445 32.297C59.1085 31.8388 58.7723 31.3215 58.5358 30.7451H58.4028V33.5385H52.3283ZM58.3141 25.0253C58.3141 25.853 58.4212 26.5698 58.6356 27.1758C58.8573 27.7743 59.1676 28.2399 59.5667 28.5724C59.9731 28.8976 60.4572 29.0602 61.0188 29.0602C61.5804 29.0602 62.0571 28.9013 62.4487 28.5835C62.8478 28.2584 63.1508 27.7965 63.3577 27.1979C63.572 26.592 63.6792 25.8677 63.6792 25.0253C63.6792 24.1829 63.572 23.4623 63.3577 22.8638C63.1508 22.2578 62.8478 21.7959 62.4487 21.4782C62.0571 21.153 61.5804 20.9904 61.0188 20.9904C60.4572 20.9904 59.9731 21.153 59.5667 21.4782C59.1676 21.7959 58.8573 22.2578 58.6356 22.8638C58.4212 23.4623 58.3141 24.1829 58.3141 25.0253ZM80.6944 33.8488C78.8765 33.8488 77.3098 33.5015 75.9944 32.8069C74.6864 32.1048 73.6777 31.0998 72.9682 29.7918C72.2662 28.4764 71.9152 26.9023 71.9152 25.0696C71.9152 23.3108 72.2699 21.7738 72.9793 20.4584C73.6888 19.143 74.6901 18.1195 75.9833 17.3879C77.2765 16.6563 78.8026 16.2905 80.5613 16.2905C81.8472 16.2905 83.0111 16.49 84.0531 16.889C85.095 17.2881 85.9855 17.8682 86.7245 18.6294C87.4635 19.3831 88.0325 20.2995 88.4316 21.3784C88.8306 22.4573 89.0302 23.673 89.0302 25.0253V26.4442H73.8218V23.0744H83.3991C83.3917 22.5866 83.266 22.158 83.0222 21.7885C82.7857 21.4116 82.4642 21.1197 82.0578 20.9128C81.6587 20.6985 81.2043 20.5914 80.6944 20.5914C80.1992 20.5914 79.7448 20.6985 79.3309 20.9128C78.9171 21.1197 78.5846 21.408 78.3333 21.7774C78.0894 22.1469 77.9601 22.5792 77.9453 23.0744V26.7102C77.9453 27.257 78.0599 27.7448 78.289 28.1734C78.518 28.602 78.8469 28.9382 79.2755 29.1821C79.7041 29.426 80.2214 29.5479 80.8274 29.5479C81.2486 29.5479 81.6329 29.4888 81.9802 29.3706C82.3349 29.2523 82.6379 29.0823 82.8892 28.8607C83.1404 28.6316 83.3252 28.3581 83.4434 28.0404H89.0302C88.838 29.2228 88.3835 30.25 87.6667 31.122C86.9499 31.9866 86.0003 32.6591 84.8179 33.1394C83.6429 33.6124 82.2684 33.8488 80.6944 33.8488ZM101.681 16.5122V20.9461H90.4629V16.5122H101.681ZM92.6355 12.4329H98.7543V28.0625C98.7543 28.299 98.795 28.4985 98.8763 28.6611C98.9576 28.8163 99.0832 28.9346 99.2531 29.0158C99.4231 29.0897 99.6411 29.1267 99.9072 29.1267C100.092 29.1267 100.306 29.1045 100.55 29.0602C100.801 29.0158 100.986 28.9789 101.104 28.9493L101.991 33.2502C101.718 33.3315 101.326 33.4313 100.816 33.5495C100.314 33.6678 99.715 33.7454 99.0204 33.7823C97.6163 33.8562 96.4376 33.7121 95.4843 33.35C94.531 32.9805 93.8142 32.4004 93.3338 31.6097C92.8535 30.819 92.6207 29.8287 92.6355 28.639V12.4329Z" fill="white"/>
<path d="M104.892 33.5385V29.1045L113.361 22.0989C113.923 21.6333 114.403 21.1973 114.802 20.7909C115.209 20.3771 115.519 19.9521 115.733 19.5161C115.955 19.0801 116.066 18.5961 116.066 18.064C116.066 17.4802 115.94 16.9814 115.689 16.5676C115.445 16.1537 115.105 15.836 114.669 15.6143C114.233 15.3852 113.731 15.2706 113.162 15.2706C112.593 15.2706 112.09 15.3852 111.654 15.6143C111.225 15.8434 110.893 16.1796 110.656 16.623C110.42 17.0664 110.302 17.6059 110.302 18.2414H104.449C104.449 16.6452 104.807 15.2706 105.524 14.1178C106.241 12.965 107.253 12.0782 108.561 11.4575C109.869 10.8367 111.403 10.5263 113.162 10.5263C114.979 10.5263 116.554 10.8182 117.884 11.402C119.221 11.9785 120.252 12.7913 120.976 13.8407C121.708 14.8901 122.074 16.1205 122.074 17.532C122.074 18.404 121.893 19.2723 121.531 20.1369C121.169 20.9941 120.518 21.9437 119.58 22.9857C118.641 24.0277 117.307 25.2692 115.578 26.7102L113.45 28.4838V28.6168H122.318V33.5385H104.892ZM124.363 29.9913V25.2027L133.497 10.8367H137.842V17.2216H135.359L130.437 25.0253V25.2027H143.916V29.9913H124.363ZM135.403 33.5385V28.5281L135.536 26.4442V10.8367H141.3V33.5385H135.403ZM147.522 33.5385L156.434 15.8914V15.7584H145.97V10.8367H162.819V15.7584L153.862 33.5385H147.522Z" fill="#A3E635"/>
</svg>
