<svg width="90" height="90" viewBox="0 0 90 90" fill="none" xmlns="http://www.w3.org/2000/svg">
<g clip-path="url(#clip0_56_7151)">
<path fill-rule="evenodd" clip-rule="evenodd" d="M75.6503 0.699291C77.4924 0.0280402 79.4878 -0.103426 81.4021 0.320343C83.3164 0.744112 85.0699 1.70551 86.4566 3.09153C87.8433 4.47756 88.8055 6.23063 89.2302 8.14469C89.6549 10.0588 89.5244 12.0543 88.854 13.8967L66.1336 81.9944C65.5808 83.6678 64.6079 85.1714 63.3078 86.3613C62.0078 87.5511 60.4242 88.3874 58.7085 88.7902C56.9968 89.2064 55.2064 89.171 53.5125 88.6874C51.8187 88.2037 50.2795 87.2885 49.0456 86.0312L36.8526 73.8954L24.0493 80.5196C23.5585 80.7741 23.0099 80.8962 22.4575 80.8738C21.9051 80.8514 21.3681 80.6854 20.8995 80.392C20.4309 80.0987 20.0469 79.6882 19.7854 79.201C19.524 78.7139 19.3941 78.167 19.4086 77.6144L19.9363 57.3732L64.7223 24.8437C65.1448 24.5369 65.5026 24.1499 65.7755 23.7048C66.0483 23.2597 66.2309 22.7652 66.3126 22.2496C66.3944 21.7339 66.3738 21.2073 66.252 20.6996C66.1302 20.1919 65.9096 19.7132 65.6028 19.2908C65.296 18.8683 64.909 18.5105 64.4639 18.2376C64.0188 17.9647 63.5243 17.7822 63.0087 17.7005C62.493 17.6187 61.9663 17.6393 61.4586 17.7611C60.951 17.8829 60.4722 18.1035 60.0498 18.4103L14.5073 51.4929L3.5094 40.495C2.32413 39.3094 1.45028 37.8492 0.965605 36.2444C0.480928 34.6395 0.400448 32.9397 0.731324 31.2962C1.06401 29.4994 1.86877 27.8235 3.06302 26.4405C4.25727 25.0574 5.798 24.017 7.52711 23.4261H7.54618L75.6439 0.692934L75.6503 0.699291Z" fill="#84CC16"/>
</g>
<defs>
<clipPath id="clip0_56_7151">
<rect width="89" height="89" fill="white" transform="translate(0.5 0.0769043)"/>
</clipPath>
</defs>
</svg>
