<svg width="22" height="23" viewBox="0 0 22 23" fill="none" xmlns="http://www.w3.org/2000/svg">
<g clip-path="url(#clip0_12628_5053)">
<g clip-path="url(#clip1_12628_5053)">
<g clip-path="url(#clip2_12628_5053)">
<path fill-rule="evenodd" clip-rule="evenodd" d="M10.7133 0.922241C11.9363 0.922241 13.1109 1.12951 14.2039 1.51083C14.5162 1.81665 14.8327 2.20694 15.1542 2.69833C16.189 2.91919 17.1518 3.30554 18.0858 3.90847C20.0717 5.83428 21.3059 8.53042 21.3059 11.5148L21.3052 11.6091C21.3036 11.6018 21.302 11.5945 21.3003 11.5871C21.187 12.2626 20.8161 13.0311 20.0599 13.9387C20.1477 14.9525 20.0697 15.9473 19.7936 16.9733C17.9393 20.05 14.5666 22.1074 10.7133 22.1074C9.40006 22.1074 8.14264 21.8684 6.98214 21.4316L7.45211 20.8494C6.1254 20.1771 5.12346 19.3229 4.31421 18.2509C3.20569 18.0912 2.43817 17.7926 1.90451 17.3989C0.983313 16.0234 0.376201 14.4198 0.185242 12.6907C0.357057 11.9952 0.592963 11.2714 0.990143 10.4775C0.947766 9.31371 0.96782 7.55616 1.37161 6.56927L1.3403 6.5757C2.21348 4.92209 3.51143 3.52749 5.08892 2.53714C4.65694 3.02206 4.18314 3.63507 4.13539 3.836C4.46125 3.82631 5.85404 4.30474 6.73932 4.88896C7.87228 4.14894 8.82765 3.79786 10.636 3.29003C10.6202 2.78144 10.6016 1.6774 10.5902 1.26679C10.0535 1.13387 9.52399 1.05798 9.04029 1.0537C9.5853 0.967144 10.1441 0.922241 10.7133 0.922241ZM15.727 15.7969C14.3787 16.3884 13.1465 16.8576 11.8706 17.3203C11.6046 18.4101 11.2236 19.6676 10.9512 20.3565C11.7263 20.5542 13.2566 20.8132 14.4258 20.6952C15.3468 20.3089 16.9548 18.6385 17.3677 17.8033C17.0818 17.3342 16.168 16.2688 15.727 15.7969ZM6.26663 8.55863C5.20394 9.28648 4.37485 10.1114 3.3134 11.3192C3.33844 12.3783 4.38527 14.4629 4.96565 15.2265C6.25949 15.2847 7.5776 15.1401 8.90773 14.8951C9.10776 14.1122 9.59301 11.6796 9.72881 10.7524C8.97425 10.1834 7.33469 9.23068 6.26663 8.55863ZM13.8546 5.4423C13.7721 6.7988 13.6125 8.07497 13.439 9.33651C14.6677 10.22 15.6948 11.0886 16.5129 11.9418L18.9429 9.74739C18.5848 8.23195 18.077 6.87906 17.2959 5.69861L13.8546 5.4423Z" fill="white"/>
<path opacity="0.302" fill-rule="evenodd" clip-rule="evenodd" d="M18.4152 4.29034C18.6577 4.53284 18.886 4.78417 19.1 5.0433C20.483 6.83344 21.3058 9.07805 21.3058 11.5148L21.3052 11.6091C21.3035 11.6018 21.3019 11.5945 21.3003 11.5871C21.1869 12.2626 20.816 13.0311 20.0598 13.9387C20.1476 14.9525 20.0696 15.9473 19.7935 16.9733C17.9392 20.05 14.5665 22.1074 10.7132 22.1074C9.39999 22.1074 8.14256 21.8684 6.98207 21.4316L7.45204 20.8494C6.84641 20.5425 6.30846 20.1977 5.82562 19.8116C7.7952 20.0826 9.64327 19.8995 11.2988 19.359C11.175 19.7475 11.0551 20.0935 10.9511 20.3565C11.7262 20.5542 13.2565 20.8132 14.4257 20.6952C15.3467 20.3089 16.9547 18.6385 17.3676 17.8033C17.1524 17.4501 16.5812 16.759 16.1239 16.2375C18.8444 13.247 19.948 8.80324 18.4152 4.29034Z" fill="black"/>
</g>
</g>
</g>
<defs>
<clipPath id="clip0_12628_5053">
<rect width="21.1852" height="21.1852" fill="white" transform="translate(0.185242 0.922241)"/>
</clipPath>
<clipPath id="clip1_12628_5053">
<rect width="21.1852" height="21.1852" fill="white" transform="translate(0.185242 0.922241)"/>
</clipPath>
<clipPath id="clip2_12628_5053">
<rect width="21.1852" height="21.1852" fill="white" transform="translate(0.185242 0.922241)"/>
</clipPath>
</defs>
</svg>
