<svg width="156" height="157" viewBox="0 0 156 157" fill="none" xmlns="http://www.w3.org/2000/svg">
<path d="M78 9.8269C96.101 9.8269 113.461 17.0175 126.26 29.8169C139.059 42.6162 146.25 59.9759 146.25 78.0769C146.25 96.1779 139.059 113.538 126.26 126.337C113.461 139.136 96.101 146.327 78 146.327C59.899 146.327 42.5393 139.136 29.74 126.337C16.9406 113.538 9.75 96.1779 9.75 78.0769C9.75 59.9759 16.9406 42.6162 29.74 29.8169C42.5393 17.0175 59.899 9.8269 78 9.8269ZM69.498 91.5416L54.3368 76.3707C53.7932 75.8271 53.148 75.396 52.4378 75.1018C51.7277 74.8077 50.9665 74.6563 50.1979 74.6563C49.4292 74.6563 48.6681 74.8077 47.9579 75.1018C47.2478 75.396 46.6025 75.8271 46.059 76.3707C44.9613 77.4684 44.3446 78.9572 44.3446 80.5095C44.3446 82.0619 44.9613 83.5507 46.059 84.6484L65.364 103.953C65.906 104.5 66.5507 104.933 67.2611 105.229C67.9714 105.525 68.7334 105.677 69.5029 105.677C70.2724 105.677 71.0343 105.525 71.7447 105.229C72.455 104.933 73.0998 104.5 73.6418 103.953L113.617 63.9687C114.168 63.4274 114.606 62.7824 114.906 62.071C115.206 61.3595 115.363 60.5956 115.366 59.8234C115.37 59.0512 115.221 58.2859 114.927 57.5717C114.633 56.8575 114.201 56.2084 113.655 55.6621C113.11 55.1157 112.461 54.6828 111.747 54.3883C111.033 54.0938 110.268 53.9436 109.496 53.9462C108.724 53.9489 107.96 54.1045 107.248 54.4039C106.536 54.7033 105.891 55.1408 105.349 55.6909L69.498 91.5416Z" fill="#84CC16"/>
</svg>
