<svg width="22" height="22" viewBox="0 0 22 22" fill="none" xmlns="http://www.w3.org/2000/svg">
<g clip-path="url(#clip0_12628_5062)">
<g clip-path="url(#clip1_12628_5062)">
<g clip-path="url(#clip2_12628_5062)">
<path d="M18.766 18.2171C18.3914 17.7622 18.0289 17.3376 17.6785 16.9434C17.7906 16.4854 18.0307 14.9771 18.0544 14.622C18.5896 14.3937 19.036 14.25 19.3025 14.1631C19.4133 14.2762 20.2453 15.1732 20.4908 15.7566C20.518 16.3151 20.4763 16.7856 20.3064 17.3532C19.887 17.6426 19.3864 17.9256 18.766 18.2171ZM17.8092 20.4723C17.8301 20.515 17.8514 20.5579 17.8732 20.6011C16.6925 21.1002 15.4049 21.0821 14.2841 20.6354C14.2049 20.5589 14.1014 20.4357 14.0205 20.2472C14.3774 20.1711 15.4593 19.8103 15.6888 19.7015C16.2461 19.8591 16.8358 19.9453 17.4581 19.9603C17.549 20.0807 17.666 20.2513 17.8092 20.4723ZM18.8523 18.348C19.2823 18.1622 19.7503 17.9096 20.2565 17.5904C20.3187 17.7601 20.3312 18.0632 20.3311 18.2426C19.6506 19.7349 18.3927 20.3882 18.0238 20.5343C17.8966 20.3148 17.7755 20.1311 17.6199 19.9218C18.081 19.4858 18.4918 18.9612 18.8523 18.348ZM13.946 20.0917C13.4298 19.8129 12.6495 19.1913 12.3584 18.8058C12.3067 18.6633 12.1733 17.4958 12.2233 16.9532C12.5994 16.7764 13.0903 16.5791 13.6959 16.3612C13.7679 16.5492 15.3741 17.7959 15.4982 17.8695L15.548 19.5859C14.8223 19.8671 14.2883 20.0358 13.946 20.0917ZM19.3603 14.0049C19.196 13.5464 18.9576 13.1066 18.645 12.6854C18.7077 12.632 18.767 12.5825 18.8244 12.5359C19.8166 13.2479 20.5209 14.4047 20.6645 15.4649C20.6159 15.5047 20.582 15.5312 20.5478 15.5549C20.2961 15.0982 19.538 14.1423 19.3603 14.0049ZM17.5239 16.9318C16.9774 17.1775 16.3226 17.4429 15.5595 17.7279C15.5235 17.7046 15.4869 17.6805 15.4493 17.6553C14.9221 17.3022 14.369 16.8263 13.7311 16.1588C13.7836 15.5016 13.8824 14.8967 14.0274 14.344C14.2336 14.1794 15.5861 13.5125 16.2347 13.4033C16.8283 13.775 17.3832 14.1891 17.8995 14.6456C17.8959 14.982 17.656 16.4682 17.5239 16.9318ZM11.6868 15.4558C11.7429 16.0266 11.9453 16.5307 12.0702 16.8023C12.0116 17.6017 12.188 18.8634 12.2012 18.8809C12.1717 18.889 12.1449 18.8937 12.1179 18.8988C11.7472 18.354 11.1138 17.1998 11.3827 15.6202C11.4806 15.5657 11.5819 15.5109 11.6868 15.4558ZM11.42 15.4119C11.632 14.3275 12.2276 13.3263 13.1377 12.62C13.0993 12.6982 12.8017 13.4014 12.7086 13.7199C12.2084 14.2704 11.87 14.786 11.6933 15.2667C11.5995 15.3153 11.5084 15.3637 11.42 15.4119ZM13.9857 14.1951C13.7423 14.0231 13.1769 13.7482 12.9069 13.6671C12.9755 13.3754 13.2817 12.6158 13.376 12.4884C13.3497 12.4632 14.5574 11.8139 15.1074 11.7593C15.2622 11.7607 16.253 12.0288 16.6293 12.2091C16.5098 12.4672 16.3349 12.8225 16.1602 13.264C15.5275 13.3629 14.1993 14.082 13.9857 14.1951ZM18.5266 12.5862C18.1495 12.3831 17.3116 12.1625 16.8794 12.1469C16.4894 11.9472 15.5333 11.6785 15.415 11.6673C16.5725 11.5139 17.7434 11.7981 18.695 12.4448C18.6411 12.4891 18.5853 12.5359 18.5266 12.5862Z" fill="#EAEAEC"/>
<path fill-rule="evenodd" clip-rule="evenodd" d="M13.9118 2.19337C13.4302 3.94495 11.153 9.06382 11.1431 14.3639C10.9072 14.9633 10.7777 15.6165 10.7777 16.3C10.7777 17.6592 11.2897 18.8988 12.1313 19.8365L12.2205 20.0491H5.65382C7.21715 16.2311 7.68736 11.3188 3.94885 2.19337C7.26603 1.69471 10.5859 1.55099 13.9118 2.19337Z" fill="#373030"/>
<path fill-rule="evenodd" clip-rule="evenodd" d="M11.4939 18.9612L11.5212 19.0629C11.59 19.3098 11.6641 19.5547 11.7435 19.7974L11.7972 19.9588L11.8291 20.0532L11.6403 20.117L11.6084 20.0227C11.3859 19.3646 11.2025 18.691 11.0569 18.0028C11.1713 18.3386 11.3181 18.6594 11.4939 18.9612ZM13.059 1.83142L13.2453 1.90222L13.2099 1.99535C12.1826 4.69785 11.4259 7.45912 11.0601 10.2255C10.8301 11.965 10.764 13.6492 10.8781 15.266C10.8124 15.6003 10.7777 15.9461 10.7777 16.3L10.7773 16.3092C10.5433 14.3676 10.5817 12.3237 10.8626 10.1994C11.2191 7.50316 11.9441 4.81395 12.9276 2.17934L13.0236 1.92455L13.059 1.83142Z" fill="url(#paint0_linear_12628_5062)"/>
<path fill-rule="evenodd" clip-rule="evenodd" d="M13.6119 1.72274L14.1184 1.89607L13.8452 2.57888L13.1055 4.7109L12.923 5.2462L12.8417 5.49011C12.0609 7.86955 11.5709 9.93894 11.3686 12.0854C11.306 12.7495 11.2737 13.4072 11.2732 14.059C11.2015 14.2137 11.1363 14.3726 11.0789 14.5352C11.0605 13.7217 11.0918 12.899 11.1702 12.0667C11.3675 9.97312 11.8358 7.95482 12.5773 5.65855L12.7038 5.27283L12.9682 4.49753L13.6351 2.5751L13.445 2.50804C12.7072 2.24779 11.6465 2.06952 10.4849 1.98038L10.2252 1.96204C9.83347 1.93674 9.43231 1.9214 9.02998 1.91629L9.03003 20.0904H8.83077L8.83074 1.91459C7.1785 1.90748 5.52951 2.0734 4.45254 2.43062L4.16639 2.53119C5.79728 6.28927 6.68877 9.98362 6.86365 13.2825C7.01707 16.1768 6.59547 18.6021 5.76661 19.978L5.72619 20.0438L5.67324 20.1281L5.50445 20.0222L5.5574 19.9379C6.38768 18.6145 6.81859 16.1966 6.66467 13.2931C6.48981 9.99451 5.59231 6.29392 3.94825 2.5293L3.83495 2.27242L3.6582 1.87774L4.08979 1.71243C6.41917 0.88753 11.2835 0.947679 13.6119 1.72274ZM12.2146 19.9271L12.2578 20.0531L12.0691 20.1172L12.0371 20.0228C11.9819 19.8601 11.9292 19.6972 11.8789 19.5339C11.9848 19.6704 12.0967 19.8016 12.2146 19.9271Z" fill="url(#paint1_linear_12628_5062)"/>
<path fill-rule="evenodd" clip-rule="evenodd" d="M12.103 1.82922L12.2862 1.9075L12.2471 1.99912C12.0841 2.38068 11.9201 2.82662 11.7598 3.3223L11.6861 3.55456C11.6739 3.59385 11.6617 3.63341 11.6495 3.67324L11.5768 3.9155C11.5407 4.03823 11.5048 4.1633 11.4693 4.29055L11.3988 4.54788L11.3294 4.81068L11.2611 5.07863C11.2386 5.16877 11.2163 5.25972 11.1941 5.35142L11.1285 5.62871C11.1177 5.67529 11.107 5.72204 11.0963 5.76896L11.0329 6.05242L10.9712 6.33961L10.9112 6.63018C10.9014 6.67888 10.8916 6.7277 10.8819 6.77665L10.8248 7.07172L10.7696 7.36939C10.6343 8.11654 10.5188 8.88506 10.4305 9.65249C9.99493 13.4371 10.2077 16.9547 11.2155 19.8119L11.2675 19.9566L11.3016 20.0502L11.1144 20.1185L11.0803 20.0249C10.0158 17.109 9.78634 13.5067 10.2325 9.62971C10.2681 9.32084 10.308 9.0118 10.3518 8.70402L10.3969 8.39671C10.4356 8.14106 10.4768 7.88661 10.5204 7.63421L10.5738 7.33235C10.5829 7.28223 10.5921 7.23219 10.6013 7.18226L10.6579 6.88394C10.677 6.78494 10.6966 6.6864 10.7164 6.58838L10.7768 6.29589C10.787 6.24741 10.7973 6.19908 10.8076 6.1509L10.8706 5.86362C10.9026 5.72092 10.9351 5.57968 10.9681 5.44006L11.0349 5.16307C11.0574 5.0715 11.0802 4.9807 11.1031 4.89074L11.1725 4.62341C11.1842 4.57928 11.1959 4.53538 11.2076 4.49171L11.2787 4.23246C11.3026 4.14699 11.3266 4.06248 11.3508 3.979L11.4237 3.73164L11.4974 3.49071C11.522 3.41151 11.5468 3.33343 11.5717 3.25653L11.6466 3.02942C11.7718 2.65696 11.899 2.31527 12.0258 2.011L12.103 1.82922Z" fill="url(#paint2_linear_12628_5062)"/>
<path fill-rule="evenodd" clip-rule="evenodd" d="M10.6273 1.73169L10.8175 1.79108L10.7878 1.88618C10.4206 3.06186 10.1312 4.54027 9.92972 6.18609L9.88788 6.54128L9.84876 6.9013C9.82988 7.08247 9.81202 7.26533 9.7952 7.44973L9.76296 7.82053C9.71153 8.44177 9.67172 9.07881 9.644 9.7255L9.62882 10.1146C9.51446 13.3661 9.70448 16.8278 10.2565 19.7292L10.336 20.0831H10.1138L10.0946 19.9411C9.50212 16.9308 9.30453 13.2973 9.43714 9.90775L9.4539 9.51777C9.59055 6.60184 9.97262 3.89356 10.5582 1.95489L10.6273 1.73169Z" fill="url(#paint3_linear_12628_5062)"/>
<path fill-rule="evenodd" clip-rule="evenodd" d="M4.97493 1.83514L4.78868 1.90594L4.82408 1.99907C5.85135 4.70157 6.608 7.46284 6.97379 10.2292C7.42838 13.6672 7.24302 16.8889 6.29048 19.8011L6.23677 19.9626L6.20485 20.0569L6.39361 20.1208L6.42553 20.0264C7.43536 17.0404 7.63807 13.733 7.17133 10.2031C6.81482 7.50688 6.08986 4.81767 5.10632 2.18306L5.01033 1.92827L4.97493 1.83514Z" fill="url(#paint4_linear_12628_5062)"/>
<path fill-rule="evenodd" clip-rule="evenodd" d="M5.844 1.83142L5.66075 1.90969L5.69989 2.00132C5.86288 2.38288 6.02691 2.82881 6.18717 3.3245L6.26085 3.55676C6.27308 3.59604 6.28528 3.6356 6.29746 3.67544L6.37014 3.9177C6.40629 4.04042 6.44214 4.1655 6.47763 4.29274L6.54812 4.55008L6.61755 4.81288L6.68582 5.08083C6.70837 5.17097 6.73071 5.26192 6.75281 5.35361L6.81843 5.63091C6.82925 5.67749 6.84 5.72424 6.85069 5.77115L6.91405 6.05462L6.97577 6.3418L7.03574 6.63238C7.04559 6.68108 7.05536 6.7299 7.06504 6.77884L7.12221 7.07392L7.17736 7.37159C7.31266 8.11874 7.42816 8.88726 7.51648 9.65469C7.95203 13.4393 7.73923 16.9569 6.73144 19.8141L6.67951 19.9588L6.64534 20.0524L6.83252 20.1207L6.86669 20.0271C7.93114 17.1112 8.16062 13.5089 7.71444 9.63191C7.67889 9.32304 7.63897 9.014 7.59514 8.70622L7.55003 8.39891C7.51138 8.14326 7.47013 7.88881 7.42655 7.63641L7.37316 7.33455C7.36408 7.28442 7.35491 7.23439 7.34565 7.18446L7.2891 6.88614C7.26992 6.78714 7.2504 6.6886 7.23058 6.59057L7.17018 6.29809C7.15997 6.24961 7.14968 6.20128 7.13932 6.15309L7.07632 5.86582C7.04441 5.72312 7.01189 5.58187 6.97884 5.44226L6.91202 5.16526C6.88951 5.07369 6.86678 4.9829 6.84385 4.89294L6.77445 4.6256C6.76278 4.58148 6.75107 4.53758 6.73931 4.49391L6.66825 4.23466C6.64439 4.14919 6.62037 4.06468 6.59621 3.98119L6.52329 3.73384L6.44961 3.49291C6.42493 3.41371 6.40015 3.33563 6.37527 3.25873L6.30036 3.03161C6.17512 2.65915 6.048 2.31746 5.92117 2.01319L5.844 1.83142Z" fill="url(#paint5_linear_12628_5062)"/>
<path fill-rule="evenodd" clip-rule="evenodd" d="M7.23371 1.68219L7.04351 1.74158L7.07321 1.83668C7.44033 3.01236 7.72972 4.49077 7.93124 6.13659L7.97308 6.49178L8.0122 6.8518C8.03108 7.03297 8.04894 7.21583 8.06576 7.40023L8.09801 7.77103C8.14943 8.39227 8.18924 9.02931 8.21696 9.676L8.23214 10.0651C8.3465 13.3166 8.15649 16.8721 7.60445 19.7735L7.55166 20.0447L7.74717 20.0831L7.7664 19.9854C8.35884 16.9751 8.55643 13.2478 8.42382 9.85825L8.40706 9.46827C8.27041 6.55234 7.88834 3.84406 7.30275 1.90539L7.23371 1.68219Z" fill="url(#paint6_linear_12628_5062)"/>
<path fill-rule="evenodd" clip-rule="evenodd" d="M5.49988 20.0215L12.2636 20.047V20.8901L5.49988 20.8647V20.0215Z" fill="#D8D8D8"/>
</g>
</g>
</g>
<defs>
<linearGradient id="paint0_linear_12628_5062" x1="224.939" y1="554.606" x2="49.5957" y2="554.606" gradientUnits="userSpaceOnUse">
<stop stop-color="#BBBBBB"/>
<stop offset="0.48476" stop-color="#F6F6F6"/>
<stop offset="1" stop-color="#BCBBBB"/>
</linearGradient>
<linearGradient id="paint1_linear_12628_5062" x1="858.913" y1="575.815" x2="159.18" y2="575.815" gradientUnits="userSpaceOnUse">
<stop stop-color="#BBBBBB"/>
<stop offset="0.48476" stop-color="#F6F6F6"/>
<stop offset="1" stop-color="#BCBBBB"/>
</linearGradient>
<linearGradient id="paint2_linear_12628_5062" x1="195.557" y1="554.715" x2="43.756" y2="554.715" gradientUnits="userSpaceOnUse">
<stop stop-color="#BBBBBB"/>
<stop offset="0.48476" stop-color="#F6F6F6"/>
<stop offset="1" stop-color="#BCBBBB"/>
</linearGradient>
<linearGradient id="paint3_linear_12628_5062" x1="125.481" y1="556.495" x2="30.5065" y2="556.495" gradientUnits="userSpaceOnUse">
<stop stop-color="#BBBBBB"/>
<stop offset="0.48476" stop-color="#F6F6F6"/>
<stop offset="1" stop-color="#BCBBBB"/>
</linearGradient>
<linearGradient id="paint4_linear_12628_5062" x1="-206.905" y1="554.61" x2="-31.5618" y2="554.61" gradientUnits="userSpaceOnUse">
<stop stop-color="#BBBBBB"/>
<stop offset="0.48476" stop-color="#F6F6F6"/>
<stop offset="1" stop-color="#BCBBBB"/>
</linearGradient>
<linearGradient id="paint5_linear_12628_5062" x1="-177.61" y1="554.717" x2="-25.8091" y2="554.717" gradientUnits="userSpaceOnUse">
<stop stop-color="#BBBBBB"/>
<stop offset="0.48476" stop-color="#F6F6F6"/>
<stop offset="1" stop-color="#BCBBBB"/>
</linearGradient>
<linearGradient id="paint6_linear_12628_5062" x1="-107.62" y1="557.943" x2="-12.6455" y2="557.943" gradientUnits="userSpaceOnUse">
<stop stop-color="#BBBBBB"/>
<stop offset="0.48476" stop-color="#F6F6F6"/>
<stop offset="1" stop-color="#BCBBBB"/>
</linearGradient>
<clipPath id="clip0_12628_5062">
<rect width="21.1852" height="21.1852" fill="white" transform="translate(0.185242 0.411072)"/>
</clipPath>
<clipPath id="clip1_12628_5062">
<rect width="21.1852" height="21.1852" fill="white" transform="translate(0.185242 0.411072)"/>
</clipPath>
<clipPath id="clip2_12628_5062">
<rect width="21.1852" height="21.1852" fill="white" transform="translate(0.185242 0.411072)"/>
</clipPath>
</defs>
</svg>
